<svg width="236" height="44" viewBox="0 0 236 44" fill="none" xmlns="http://www.w3.org/2000/svg">
<rect width="236" height="44" rx="22" fill="#4B8445"/>
<circle cx="29.916" cy="22" r="15" fill="#1A3125"/>
<path d="M37.6491 17.7295C37.7414 17.3257 37.489 16.9235 37.0852 16.8311L30.5051 15.326C30.1014 15.2336 29.6991 15.4861 29.6068 15.8899C29.5144 16.2936 29.7669 16.6958 30.1707 16.7882L36.0196 18.1261L34.6817 23.9751C34.5893 24.3788 34.8418 24.781 35.2456 24.8734C35.6493 24.9658 36.0515 24.7133 36.1439 24.3095L37.6491 17.7295ZM21.0371 27.5303L21.4358 28.1655L37.3167 18.1975L36.9179 17.5622L36.5192 16.927L20.6384 26.895L21.0371 27.5303Z" fill="#4B8445"/>
<path d="M62.48 29.24C61.6 29.24 60.7467 29.0733 59.92 28.74C59.1067 28.4067 58.3867 27.9333 57.76 27.32L59.12 25.74C59.5867 26.18 60.12 26.54 60.72 26.82C61.32 27.0867 61.92 27.22 62.52 27.22C63.2667 27.22 63.8333 27.0667 64.22 26.76C64.6067 26.4533 64.8 26.0467 64.8 25.54C64.8 24.9933 64.6067 24.6 64.22 24.36C63.8467 24.12 63.3667 23.8733 62.78 23.62L60.98 22.84C60.5533 22.6533 60.1333 22.4133 59.72 22.12C59.32 21.8267 58.9867 21.4533 58.72 21C58.4667 20.5467 58.34 20 58.34 19.36C58.34 18.6667 58.5267 18.0467 58.9 17.5C59.2867 16.94 59.8067 16.5 60.46 16.18C61.1267 15.8467 61.8867 15.68 62.74 15.68C63.5 15.68 64.2333 15.8333 64.94 16.14C65.6467 16.4333 66.2533 16.8333 66.76 17.34L65.58 18.82C65.1667 18.4733 64.7267 18.2 64.26 18C63.8067 17.8 63.3 17.7 62.74 17.7C62.1267 17.7 61.6267 17.84 61.24 18.12C60.8667 18.3867 60.68 18.76 60.68 19.24C60.68 19.5733 60.7733 19.8533 60.96 20.08C61.16 20.2933 61.42 20.48 61.74 20.64C62.06 20.7867 62.4 20.9333 62.76 21.08L64.54 21.82C65.3133 22.1533 65.9467 22.5933 66.44 23.14C66.9333 23.6733 67.18 24.4133 67.18 25.36C67.18 26.0667 66.9933 26.7133 66.62 27.3C66.2467 27.8867 65.7067 28.36 65 28.72C64.3067 29.0667 63.4667 29.24 62.48 29.24ZM73.5584 29.24C72.6518 29.24 71.8318 29.04 71.0984 28.64C70.3651 28.2267 69.7851 27.64 69.3584 26.88C68.9318 26.1067 68.7184 25.18 68.7184 24.1C68.7184 23.0333 68.9318 22.1133 69.3584 21.34C69.7984 20.5667 70.3651 19.9733 71.0584 19.56C71.7518 19.1467 72.4784 18.94 73.2384 18.94C74.1318 18.94 74.8784 19.14 75.4784 19.54C76.0784 19.9267 76.5318 20.4733 76.8384 21.18C77.1451 21.8733 77.2984 22.68 77.2984 23.6C77.2984 24.08 77.2651 24.4533 77.1984 24.72H70.9584C71.0651 25.5867 71.3784 26.26 71.8984 26.74C72.4184 27.22 73.0718 27.46 73.8584 27.46C74.2851 27.46 74.6784 27.4 75.0384 27.28C75.4118 27.1467 75.7784 26.9667 76.1384 26.74L76.9184 28.18C76.4518 28.4867 75.9318 28.74 75.3584 28.94C74.7851 29.14 74.1851 29.24 73.5584 29.24ZM70.9384 23.16H75.2984C75.2984 22.4 75.1318 21.8067 74.7984 21.38C74.4651 20.94 73.9651 20.72 73.2984 20.72C72.7251 20.72 72.2118 20.9333 71.7584 21.36C71.3184 21.7733 71.0451 22.3733 70.9384 23.16ZM83.6952 29.24C82.7885 29.24 81.9685 29.04 81.2352 28.64C80.5018 28.2267 79.9218 27.64 79.4952 26.88C79.0685 26.1067 78.8552 25.18 78.8552 24.1C78.8552 23.0333 79.0685 22.1133 79.4952 21.34C79.9352 20.5667 80.5018 19.9733 81.1952 19.56C81.8885 19.1467 82.6152 18.94 83.3752 18.94C84.2685 18.94 85.0152 19.14 85.6152 19.54C86.2152 19.9267 86.6685 20.4733 86.9752 21.18C87.2818 21.8733 87.4352 22.68 87.4352 23.6C87.4352 24.08 87.4018 24.4533 87.3352 24.72H81.0952C81.2018 25.5867 81.5152 26.26 82.0352 26.74C82.5552 27.22 83.2085 27.46 83.9952 27.46C84.4218 27.46 84.8152 27.4 85.1752 27.28C85.5485 27.1467 85.9152 26.9667 86.2752 26.74L87.0552 28.18C86.5885 28.4867 86.0685 28.74 85.4952 28.94C84.9218 29.14 84.3218 29.24 83.6952 29.24ZM81.0752 23.16H85.4352C85.4352 22.4 85.2685 21.8067 84.9352 21.38C84.6018 20.94 84.1018 20.72 83.4352 20.72C82.8618 20.72 82.3485 20.9333 81.8952 21.36C81.4552 21.7733 81.1818 22.3733 81.0752 23.16ZM93.8358 29V15.92H101.716V17.88H96.1558V21.22H100.856V23.18H96.1558V27.04H101.916V29H93.8358ZM107.138 29.24C106.471 29.24 105.804 29.1133 105.138 28.86C104.471 28.5933 103.898 28.2667 103.418 27.88L104.498 26.4C104.938 26.7333 105.378 27 105.818 27.2C106.258 27.4 106.724 27.5 107.218 27.5C107.751 27.5 108.144 27.3867 108.398 27.16C108.651 26.9333 108.778 26.6533 108.778 26.32C108.778 26.04 108.671 25.8133 108.458 25.64C108.258 25.4533 107.998 25.2933 107.678 25.16C107.358 25.0133 107.024 24.8733 106.678 24.74C106.251 24.58 105.824 24.3867 105.398 24.16C104.984 23.92 104.644 23.62 104.378 23.26C104.111 22.8867 103.978 22.4267 103.978 21.88C103.978 21.0133 104.298 20.3067 104.938 19.76C105.578 19.2133 106.444 18.94 107.538 18.94C108.231 18.94 108.851 19.06 109.398 19.3C109.944 19.54 110.418 19.8133 110.818 20.12L109.758 21.52C109.411 21.2667 109.058 21.0667 108.698 20.92C108.351 20.76 107.984 20.68 107.598 20.68C107.104 20.68 106.738 20.7867 106.498 21C106.258 21.2 106.138 21.4533 106.138 21.76C106.138 22.1467 106.338 22.44 106.738 22.64C107.138 22.84 107.604 23.0333 108.138 23.22C108.591 23.38 109.031 23.58 109.458 23.82C109.884 24.0467 110.238 24.3467 110.518 24.72C110.811 25.0933 110.958 25.5867 110.958 26.2C110.958 27.04 110.631 27.76 109.978 28.36C109.324 28.9467 108.378 29.24 107.138 29.24ZM116.08 29.24C114.947 29.24 114.14 28.9133 113.66 28.26C113.193 27.5933 112.96 26.7333 112.96 25.68V21H111.56V19.28L113.08 19.18L113.36 16.5H115.28V19.18H117.78V21H115.28V25.68C115.28 26.8267 115.74 27.4 116.66 27.4C116.833 27.4 117.013 27.38 117.2 27.34C117.387 27.2867 117.547 27.2333 117.68 27.18L118.08 28.88C117.813 28.9733 117.507 29.0533 117.16 29.12C116.827 29.2 116.467 29.24 116.08 29.24ZM119.847 29V19.18H122.147V29H119.847ZM121.007 17.46C120.593 17.46 120.26 17.34 120.007 17.1C119.753 16.86 119.627 16.54 119.627 16.14C119.627 15.7533 119.753 15.44 120.007 15.2C120.26 14.96 120.593 14.84 121.007 14.84C121.42 14.84 121.753 14.96 122.007 15.2C122.26 15.44 122.387 15.7533 122.387 16.14C122.387 16.54 122.26 16.86 122.007 17.1C121.753 17.34 121.42 17.46 121.007 17.46ZM125.081 29V19.18H126.981L127.141 20.52H127.221C127.634 20.08 128.081 19.7067 128.561 19.4C129.054 19.0933 129.608 18.94 130.221 18.94C130.941 18.94 131.514 19.1 131.941 19.42C132.381 19.7267 132.714 20.1533 132.941 20.7C133.408 20.1933 133.894 19.7733 134.401 19.44C134.921 19.1067 135.488 18.94 136.101 18.94C137.141 18.94 137.908 19.28 138.401 19.96C138.894 20.64 139.141 21.6 139.141 22.84V29H136.821V23.14C136.821 22.3267 136.694 21.7533 136.441 21.42C136.201 21.0867 135.828 20.92 135.321 20.92C134.708 20.92 134.021 21.3267 133.261 22.14V29H130.961V23.14C130.961 22.3267 130.834 21.7533 130.581 21.42C130.341 21.0867 129.961 20.92 129.441 20.92C128.828 20.92 128.141 21.3267 127.381 22.14V29H125.081ZM144.317 29.24C143.463 29.24 142.763 28.9733 142.217 28.44C141.683 27.9067 141.417 27.2133 141.417 26.36C141.417 25.3067 141.877 24.4933 142.797 23.92C143.717 23.3333 145.183 22.9333 147.197 22.72C147.183 22.2 147.043 21.7533 146.777 21.38C146.523 20.9933 146.063 20.8 145.397 20.8C144.917 20.8 144.443 20.8933 143.977 21.08C143.523 21.2667 143.077 21.4933 142.637 21.76L141.797 20.22C142.343 19.8733 142.957 19.5733 143.637 19.32C144.33 19.0667 145.063 18.94 145.837 18.94C147.063 18.94 147.977 19.3067 148.577 20.04C149.19 20.76 149.497 21.8067 149.497 23.18V29H147.597L147.437 27.92H147.357C146.917 28.2933 146.443 28.6067 145.937 28.86C145.443 29.1133 144.903 29.24 144.317 29.24ZM145.057 27.44C145.457 27.44 145.817 27.3467 146.137 27.16C146.47 26.96 146.823 26.6933 147.197 26.36V24.16C145.863 24.3333 144.937 24.5933 144.417 24.94C143.897 25.2733 143.637 25.6867 143.637 26.18C143.637 26.62 143.77 26.94 144.037 27.14C144.303 27.34 144.643 27.44 145.057 27.44ZM155.397 29.24C154.263 29.24 153.457 28.9133 152.977 28.26C152.51 27.5933 152.277 26.7333 152.277 25.68V21H150.877V19.28L152.397 19.18L152.677 16.5H154.597V19.18H157.097V21H154.597V25.68C154.597 26.8267 155.057 27.4 155.977 27.4C156.15 27.4 156.33 27.38 156.517 27.34C156.703 27.2867 156.863 27.2333 156.997 27.18L157.397 28.88C157.13 28.9733 156.823 29.0533 156.477 29.12C156.143 29.2 155.783 29.24 155.397 29.24ZM163.051 29.24C162.144 29.24 161.324 29.04 160.591 28.64C159.857 28.2267 159.277 27.64 158.851 26.88C158.424 26.1067 158.211 25.18 158.211 24.1C158.211 23.0333 158.424 22.1133 158.851 21.34C159.291 20.5667 159.857 19.9733 160.551 19.56C161.244 19.1467 161.971 18.94 162.731 18.94C163.624 18.94 164.371 19.14 164.971 19.54C165.571 19.9267 166.024 20.4733 166.331 21.18C166.637 21.8733 166.791 22.68 166.791 23.6C166.791 24.08 166.757 24.4533 166.691 24.72H160.451C160.557 25.5867 160.871 26.26 161.391 26.74C161.911 27.22 162.564 27.46 163.351 27.46C163.777 27.46 164.171 27.4 164.531 27.28C164.904 27.1467 165.271 26.9667 165.631 26.74L166.411 28.18C165.944 28.4867 165.424 28.74 164.851 28.94C164.277 29.14 163.677 29.24 163.051 29.24ZM160.431 23.16H164.791C164.791 22.4 164.624 21.8067 164.291 21.38C163.957 20.94 163.457 20.72 162.791 20.72C162.217 20.72 161.704 20.9333 161.251 21.36C160.811 21.7733 160.537 22.3733 160.431 23.16ZM172.427 29.24C171.201 29.24 170.221 28.7867 169.487 27.88C168.754 26.9733 168.387 25.7133 168.387 24.1C168.387 23.0333 168.581 22.1133 168.967 21.34C169.367 20.5667 169.887 19.9733 170.527 19.56C171.167 19.1467 171.841 18.94 172.547 18.94C173.107 18.94 173.581 19.04 173.967 19.24C174.367 19.4267 174.754 19.6867 175.127 20.02L175.047 18.44V14.88H177.347V29H175.447L175.287 27.94H175.207C174.847 28.3 174.427 28.6067 173.947 28.86C173.467 29.1133 172.961 29.24 172.427 29.24ZM172.987 27.34C173.721 27.34 174.407 26.9733 175.047 26.24V21.66C174.714 21.3533 174.381 21.14 174.047 21.02C173.714 20.9 173.381 20.84 173.047 20.84C172.421 20.84 171.881 21.1267 171.427 21.7C170.987 22.26 170.767 23.0533 170.767 24.08C170.767 25.1333 170.961 25.94 171.347 26.5C171.734 27.06 172.281 27.34 172.987 27.34ZM184.48 29V15.92H192.38V17.88H186.8V21.58H191.56V23.54H186.8V29H184.48ZM196.133 29.24C195.28 29.24 194.58 28.9733 194.033 28.44C193.5 27.9067 193.233 27.2133 193.233 26.36C193.233 25.3067 193.693 24.4933 194.613 23.92C195.533 23.3333 197 22.9333 199.013 22.72C199 22.2 198.86 21.7533 198.593 21.38C198.34 20.9933 197.88 20.8 197.213 20.8C196.733 20.8 196.26 20.8933 195.793 21.08C195.34 21.2667 194.893 21.4933 194.453 21.76L193.613 20.22C194.16 19.8733 194.773 19.5733 195.453 19.32C196.146 19.0667 196.88 18.94 197.653 18.94C198.88 18.94 199.793 19.3067 200.393 20.04C201.006 20.76 201.313 21.8067 201.313 23.18V29H199.413L199.253 27.92H199.173C198.733 28.2933 198.26 28.6067 197.753 28.86C197.26 29.1133 196.72 29.24 196.133 29.24ZM196.873 27.44C197.273 27.44 197.633 27.3467 197.953 27.16C198.286 26.96 198.64 26.6933 199.013 26.36V24.16C197.68 24.3333 196.753 24.5933 196.233 24.94C195.713 25.2733 195.453 25.6867 195.453 26.18C195.453 26.62 195.586 26.94 195.853 27.14C196.12 27.34 196.46 27.44 196.873 27.44ZM204.065 29V19.18H205.965L206.125 20.92H206.205C206.552 20.28 206.972 19.7933 207.465 19.46C207.959 19.1133 208.465 18.94 208.985 18.94C209.452 18.94 209.825 19.0067 210.105 19.14L209.705 21.14C209.532 21.0867 209.372 21.0467 209.225 21.02C209.079 20.9933 208.899 20.98 208.685 20.98C208.299 20.98 207.892 21.1333 207.465 21.44C207.039 21.7333 206.672 22.2533 206.365 23V29H204.065ZM215.531 29.24C214.624 29.24 213.804 29.04 213.071 28.64C212.338 28.2267 211.758 27.64 211.331 26.88C210.904 26.1067 210.691 25.18 210.691 24.1C210.691 23.0333 210.904 22.1133 211.331 21.34C211.771 20.5667 212.338 19.9733 213.031 19.56C213.724 19.1467 214.451 18.94 215.211 18.94C216.104 18.94 216.851 19.14 217.451 19.54C218.051 19.9267 218.504 20.4733 218.811 21.18C219.118 21.8733 219.271 22.68 219.271 23.6C219.271 24.08 219.238 24.4533 219.171 24.72H212.931C213.038 25.5867 213.351 26.26 213.871 26.74C214.391 27.22 215.044 27.46 215.831 27.46C216.258 27.46 216.651 27.4 217.011 27.28C217.384 27.1467 217.751 26.9667 218.111 26.74L218.891 28.18C218.424 28.4867 217.904 28.74 217.331 28.94C216.758 29.14 216.158 29.24 215.531 29.24ZM212.911 23.16H217.271C217.271 22.4 217.104 21.8067 216.771 21.38C216.438 20.94 215.938 20.72 215.271 20.72C214.698 20.72 214.184 20.9333 213.731 21.36C213.291 21.7733 213.018 22.3733 212.911 23.16Z" fill="white" fill-opacity="0.75"/>
</svg>
