<?xml version="1.0" encoding="UTF-8"?>
<svg id="a" xmlns="http://www.w3.org/2000/svg" viewBox="0 0 447.01 130.75">
  <g>
    <path d="M137.4,6.58h5.09l7.99,24.5h-4.6l-3.73-13.04c-.78-2.59-1.5-5.39-2.22-8.08h-.15c-.67,2.71-1.39,5.48-2.17,8.08l-3.76,13.04h-4.44l7.99-24.5h0ZM134.13,21.04h11.54v3.41h-11.54v-3.41Z" fill="#fff"/>
    <path d="M157,21.97l-7.37-15.39h4.65l2.67,6.26c.72,1.82,1.41,3.52,2.18,5.39h.15c.77-1.87,1.54-3.57,2.25-5.39l2.67-6.26h4.53l-7.37,15.39v9.11h-4.35v-9.11h0Z" fill="#fff"/>
    <path d="M171.18,20.34V6.58h4.35v14.08c0,5.33,1.99,7.09,4.96,7.09s5.06-1.75,5.06-7.09V6.58h4.18v13.76c0,8.05-3.57,11.19-9.25,11.19s-9.3-3.15-9.3-11.19Z" fill="#fff"/>
    <path d="M193.79,27.94l2.53-2.98c1.75,1.67,4.11,2.79,6.38,2.79,2.76,0,4.27-1.25,4.27-3.16,0-2.02-1.58-2.66-3.81-3.6l-3.35-1.45c-2.41-1-4.95-2.91-4.95-6.5,0-3.9,3.45-6.91,8.23-6.91,2.86,0,5.63,1.18,7.55,3.12l-2.23,2.76c-1.56-1.33-3.22-2.1-5.32-2.1-2.32,0-3.83,1.09-3.83,2.88,0,1.93,1.87,2.64,3.9,3.47l3.3,1.39c2.92,1.21,4.95,3.06,4.95,6.61,0,3.97-3.3,7.28-8.8,7.28-3.31,0-6.5-1.3-8.83-3.59h.01Z" fill="#fff"/>
    <path d="M215.88,6.58h4.34v9.84h9.9V6.58h4.35v24.5h-4.35v-10.86h-9.9v10.86h-4.34V6.58Z" fill="#fff"/>
    <path d="M240.72,6.58h4.91l4.33,11.97c.54,1.56,1.03,3.21,1.57,4.81h.15c.54-1.6,1-3.25,1.54-4.81l4.24-11.97h4.92v24.5h-3.99v-11.21c0-2.26.34-5.52.55-7.79h-.15l-1.98,5.69-4.03,11.01h-2.58l-4.04-11.01-1.95-5.69h-.15c.21,2.27.55,5.53.55,7.79v11.21h-3.91V6.58h.02Z" fill="#fff"/>
    <path d="M273.42,6.58h5.09l7.99,24.5h-4.6l-3.73-13.04c-.78-2.59-1.5-5.39-2.22-8.08h-.15c-.67,2.71-1.39,5.48-2.17,8.08l-3.76,13.04h-4.44l7.99-24.5h0ZM270.15,21.04h11.54v3.41h-11.54v-3.41Z" fill="#fff"/>
    <path d="M294.17,6.58h5.09l7.99,24.5h-4.6l-3.73-13.04c-.78-2.59-1.5-5.39-2.22-8.08h-.15c-.67,2.71-1.39,5.48-2.17,8.08l-3.76,13.04h-4.44l7.99-24.5h0ZM290.91,21.04h11.54v3.41h-11.54v-3.41Z" fill="#fff"/>
    <path d="M310.06,6.58h4.46l7.61,13.77,2.53,5.23h.15c-.21-2.53-.55-5.63-.55-8.36V6.58h4.14v24.5h-4.46l-7.61-13.79-2.53-5.21h-.15c.21,2.59.55,5.54.55,8.27v10.73h-4.13V6.58h-.01Z" fill="#fff"/>
    <path d="M132.6,51.54h4.35v20.84h10.17v3.66h-14.52v-24.5Z" fill="#fff"/>
    <path d="M151.41,51.54h4.35v24.5h-4.35v-24.5Z" fill="#fff"/>
    <path d="M161.97,51.54h14.8v3.66h-10.46v6.95h8.9v3.66h-8.9v10.23h-4.34v-24.5Z" fill="#fff"/>
    <path d="M181.08,51.54h14.74v3.66h-10.4v6.28h8.81v3.66h-8.81v7.25h10.77v3.66h-15.12v-24.5h.01Z" fill="#fff"/>
    <path d="M207.04,72.9l2.53-2.98c1.75,1.67,4.11,2.79,6.38,2.79,2.76,0,4.27-1.25,4.27-3.16,0-2.01-1.58-2.66-3.81-3.6l-3.35-1.45c-2.41-1-4.95-2.91-4.95-6.5,0-3.9,3.45-6.91,8.23-6.91,2.86,0,5.63,1.18,7.55,3.12l-2.23,2.76c-1.56-1.33-3.22-2.1-5.32-2.1-2.32,0-3.83,1.09-3.83,2.88,0,1.93,1.87,2.64,3.9,3.47l3.3,1.39c2.92,1.21,4.95,3.06,4.95,6.61,0,3.97-3.3,7.28-8.8,7.28-3.31,0-6.5-1.3-8.83-3.59h.01Z" fill="#fff"/>
    <path d="M229.02,65.29v-13.76h4.34v14.08c0,5.33,1.99,7.09,4.96,7.09s5.06-1.75,5.06-7.09v-14.08h4.18v13.76c0,8.05-3.57,11.19-9.25,11.19s-9.3-3.15-9.3-11.19h.01Z" fill="#fff"/>
    <path d="M253.68,51.54h7.72c5.44,0,9.47,1.89,9.47,7.55s-4.05,7.94-9.32,7.94h-3.52v9h-4.34v-24.5h-.01ZM261.18,63.55c3.66,0,5.39-1.45,5.39-4.47s-1.9-4.08-5.54-4.08h-3.01v8.54h3.16Z" fill="#fff"/>
    <path d="M275.48,51.54h7.72c5.44,0,9.47,1.89,9.47,7.55s-4.05,7.94-9.32,7.94h-3.52v9h-4.35v-24.5h0ZM282.99,63.55c3.66,0,5.39-1.45,5.39-4.47s-1.9-4.08-5.54-4.08h-3.01v8.54h3.16Z" fill="#fff"/>
    <path d="M295.99,63.69c0-7.93,4.42-12.6,10.8-12.6s10.8,4.7,10.8,12.6-4.42,12.8-10.8,12.8-10.8-4.87-10.8-12.8ZM313.13,63.69c0-5.5-2.49-8.83-6.34-8.83s-6.34,3.33-6.34,8.83,2.49,9.02,6.34,9.02,6.34-3.52,6.34-9.02Z" fill="#fff"/>
    <path d="M322.53,51.54h8.26c5.09,0,9.02,1.8,9.02,7.27s-3.93,7.66-9.02,7.66h-3.91v9.57h-4.34v-24.5h-.01ZM330.34,62.98c3.36,0,5.18-1.39,5.18-4.18s-1.83-3.79-5.18-3.79h-3.46v7.97h3.46ZM329.97,65.3l3.15-2.59,7.65,13.33h-4.88l-5.91-10.74h0Z" fill="#fff"/>
    <path d="M349.05,55.19h-7.07v-3.66h18.49v3.66h-7.07v20.84h-4.35v-20.84h0Z" fill="#fff"/>
    <path d="M137.4,96.49h5.09l7.99,24.5h-4.6l-3.73-13.04c-.78-2.59-1.5-5.39-2.22-8.08h-.15c-.67,2.71-1.39,5.48-2.17,8.08l-3.76,13.04h-4.44l7.99-24.5h0ZM134.13,110.94h11.54v3.41h-11.54v-3.41Z" fill="#fff"/>
    <path d="M153.28,96.49h4.92l4.33,11.97c.54,1.56,1.03,3.21,1.57,4.81h.15c.54-1.6,1-3.25,1.54-4.81l4.24-11.97h4.91v24.5h-3.99v-11.21c0-2.26.34-5.52.55-7.79h-.15l-1.98,5.69-4.03,11.01h-2.58l-4.05-11.01-1.95-5.69h-.15c.21,2.27.55,5.53.55,7.79v11.21h-3.91v-24.5h.03Z" fill="#fff"/>
    <path d="M181.19,96.49h7.84c5.03,0,8.74,1.54,8.74,6.04,0,2.31-1.26,4.55-3.4,5.3v.15c2.71.61,4.71,2.5,4.71,5.81,0,4.9-4.02,7.19-9.41,7.19h-8.47v-24.5h0ZM188.64,106.6c3.42,0,4.87-1.33,4.87-3.46,0-2.37-1.6-3.27-4.78-3.27h-3.19v6.73s3.1,0,3.1,0ZM189.21,117.6c3.6,0,5.6-1.29,5.6-4.05,0-2.58-1.95-3.7-5.6-3.7h-3.67v7.75h3.67Z" fill="#fff"/>
    <path d="M203.43,110.24v-13.76h4.34v14.08c0,5.33,1.99,7.09,4.96,7.09s5.06-1.75,5.06-7.09v-14.08h4.18v13.76c0,8.05-3.57,11.19-9.25,11.19s-9.3-3.15-9.3-11.19h.01Z" fill="#fff"/>
    <path d="M228.09,96.49h4.34v20.84h10.17v3.66h-14.52v-24.5h0Z" fill="#fff"/>
    <path d="M251.62,96.49h5.09l7.99,24.5h-4.6l-3.73-13.04c-.78-2.59-1.5-5.39-2.22-8.08h-.15c-.67,2.71-1.39,5.48-2.17,8.08l-3.76,13.04h-4.44l7.99-24.5h0ZM248.35,110.94h11.54v3.41h-11.54v-3.41Z" fill="#fff"/>
    <path d="M267.5,96.49h4.47l7.61,13.77,2.53,5.23h.15c-.21-2.53-.55-5.63-.55-8.36v-10.64h4.14v24.5h-4.46l-7.61-13.79-2.53-5.21h-.15c.21,2.59.55,5.54.55,8.27v10.73h-4.14v-24.5h-.01Z" fill="#fff"/>
    <path d="M290.78,108.82c0-8.02,5.02-12.78,11.22-12.78,3.07,0,5.51,1.47,7.06,3.1l-2.32,2.8c-1.26-1.26-2.73-2.13-4.65-2.13-3.99,0-6.85,3.37-6.85,8.87s2.64,8.98,6.74,8.98c2.17,0,3.85-1,5.23-2.52l2.32,2.73c-1.99,2.31-4.54,3.57-7.72,3.57-6.16,0-11.04-4.51-11.04-12.62h.01Z" fill="#fff"/>
    <path d="M313.65,96.49h14.75v3.66h-10.4v6.28h8.81v3.66h-8.81v7.25h10.77v3.66h-15.12v-24.5h0Z" fill="#fff"/>
  </g>
  <path d="M341.8,94.58c.52-.11,1.25-.16,1.96-.16,1.09,0,1.79.2,2.29.64.4.35.62.89.62,1.5,0,1.04-.66,1.73-1.49,2.02v.04c.61.21.97.77,1.16,1.59.26,1.1.45,1.86.61,2.17h-1.05c-.13-.22-.3-.9-.53-1.89-.23-1.09-.66-1.5-1.58-1.54h-.96v3.42h-1.02v-7.79h-.01ZM342.82,98.18h1.04c1.09,0,1.78-.6,1.78-1.5,0-1.02-.74-1.46-1.82-1.48-.49,0-.84.05-1.01.09v2.88h.01Z" fill="#fff"/>
  <circle cx="344.02" cy="98.6" r="6.9" fill="none" stroke="#fff" stroke-miterlimit="10" stroke-width=".75"/>
</svg>