<?xml version="1.0" encoding="UTF-8"?>
<svg id="a" xmlns="http://www.w3.org/2000/svg" viewBox="0 0 186.42 128.63">
  <path d="M61.87,9.72s29.68-21.88,62.34,0v9.23h9.75l-15.27,4.22-.3-10.28s-25.57-15.86-50.8.75v10.59l-18.23-5.27,12.51.26v-9.49h0Z" fill="#4c8445"/>
  <path d="M65.26,48.29h6.15s6.82,16.33,21.75,25.44c0,0,14.51-7.21,21.29-25.44h6.78s-6.15,20.99-27.99,33.29c0,0-19.72-8.91-27.99-33.29h0Z" fill="#4c8445"/>
  <path d="M25.19,17.76l44.74,10.39s2.69.68,5.18-.4l13.1-4.16-8.24,6.85c-.64.53-1.04,1.3-1.04,2.13,0,1.5.55,3.73,3.74,4.17,0,0,3.74.91,8.23-3.74,0,0,2.66-3.83,5.49-.5l11.86,10.43c.25.22.54.4.79.61.78.65,2.4,1.89.6,3.98-.02.02-.04.04-.07.06-.23.15-1.51.85-3.39-.95-.05-.04-.09-.1-.14-.14l-4.67-3.93s-2.02-.09-1.25,1.83l5.11,4.71c.09.08.17.18.23.29.43.78.51,2.97-2.46,3.29-.16.02-.39-.06-.51-.17l-6.36-5.79s-2.28.29-1.56,2.04l4.56,4.42c.14.13,1.06,2.7-1.75,3.21-.26.05-.54-.05-.73-.24l-4.68-4.52s-2.3-.3-1.58,1.91l2.3,2.3c.08.08.13.18.15.29.08.51.1,1.93-2.29,2.07,0,0-11.81.17-18.63-12.14h0l-22.59,1.5s-5.93-3.33-6.68-5.66l12.39-2.41-15.8.75s-6.4-5.24-7.73-8.32l31.52.33-29.36-2.49s-4.21-2.84-8.51-11.98l.03-.02Z" fill="#b1302e"/>
  <path d="M81.02,32.36l10.64-9.27s1.63-1.21,4.56,0l10.36,4.37s2.3,1.51,7.08.36l46-10.05s-4.95,10.16-8.69,11.95l-28.56,2.36,30.63-.12s-3.8,6.74-8.06,8.12l-15.32-.75,12.61,2.53s-3.63,4.38-6.91,5.53l-22.8-1.44s-.09-1.32-.58-2.59c-.27-.69-.72-1.3-1.29-1.78l-14.36-12.1s-1.66-1.34-4.4-.3c-.59.23-1.13.58-1.62.99-1.07.9-3.31,2.77-4.61,3.79-.58.45-1.31.66-2.05.59-1.39-.14-3.42-.62-2.63-2.18h0Z" fill="#b1302e"/>
  <g>
    <path d="M43.22,105.87c.34-.05.61-.22.81-.51s.39-.62.57-.99l7.32-15.39c.18-.34.35-.66.49-.95.15-.29.22-.54.22-.75,0-.26-.09-.45-.28-.55-.19-.1-.38-.18-.59-.24v-.71h6.69v.71c-.19.05-.37.13-.55.22-.19.09-.28.28-.28.57,0,.21.05.42.14.63s.23.49.42.83l8.23,16.1c.13.29.31.5.53.63s.48.26.77.4v.71h-6.96v-.71c.1,0,.24-.04.4-.12s.24-.2.24-.36c0-.26-.11-.61-.32-1.03l-1.5-2.93h-9.65l-1.42,2.81c-.26.55-.4.95-.4,1.19,0,.29.25.44.75.44v.71h-5.62v-.71h-.01ZM58.13,98.51l-3.32-7.36-3.72,7.36h7.04Z" fill="#fff"/>
    <path d="M91.48,107.33c0-.4-.13-.62-.38-.67-.25-.05-.57-.08-.97-.08h-18.83v-.71c.79,0,1.19-.24,1.19-.71v-17.96c0-.48-.4-.71-1.19-.71v-.71h6.8v.71c-.74,0-1.11.24-1.11.71v15.74h13.13c.4,0,.72-.09.97-.28.25-.18.38-.44.38-.75h.71v5.42h-.71.01Z" fill="#fff"/>
    <path d="M97.89,100.05l.4.2c0,.24.05.45.16.63.18.32.55.63,1.09.93.54.3,1.16.57,1.86.81s1.43.43,2.2.57c.76.14,1.45.22,2.06.22.45,0,1.03-.03,1.74-.1s1.41-.2,2.1-.42c.69-.21,1.28-.5,1.78-.87s.75-.86.75-1.46-.23-1.05-.69-1.35c-.46-.29-1.07-.5-1.82-.63s-1.61-.22-2.57-.26-1.95-.1-2.95-.18-1.98-.21-2.95-.4c-.96-.18-1.82-.5-2.57-.93-.75-.44-1.36-1.03-1.82-1.78s-.69-1.73-.69-2.95c0-.82.19-1.62.57-2.41s.97-1.49,1.76-2.1,1.79-1.1,3.01-1.48c1.21-.38,2.64-.57,4.27-.57,1.4,0,2.61.11,3.64.32s1.92.44,2.67.67c.75.24,1.38.46,1.9.67.51.21.94.32,1.29.32.37,0,.63-.08.79-.24l.47.32-2.73,4.94-.4-.16c-.05-.37-.16-.67-.32-.91-.21-.32-.56-.63-1.05-.93-.49-.3-1.06-.57-1.72-.81s-1.37-.43-2.14-.57-1.53-.22-2.29-.22c-.58,0-1.18.05-1.8.14s-1.18.23-1.68.42-.92.43-1.25.73-.49.68-.49,1.13c0,.63.23,1.11.69,1.42s1.07.55,1.82.71c.75.16,1.61.26,2.57.32.96.05,1.94.12,2.95.2,1,.08,1.98.22,2.95.42.96.2,1.82.51,2.57.95.75.43,1.36,1.02,1.82,1.76.46.74.69,1.7.69,2.89,0,1.37-.36,2.49-1.09,3.36-.73.87-1.63,1.56-2.71,2.06s-2.25.84-3.5,1.01c-1.25.17-2.42.26-3.5.26-1.5,0-2.76-.09-3.78-.26-1.02-.17-1.86-.38-2.53-.63s-1.21-.47-1.6-.67c-.4-.2-.74-.3-1.03-.3-.19,0-.36.11-.51.32l-.55-.32,2.18-4.79h-.02Z" fill="#fff"/>
    <path d="M120.16,105.87c.34-.05.61-.22.81-.51s.39-.62.57-.99l7.32-15.39c.18-.34.35-.66.49-.95.15-.29.22-.54.22-.75,0-.26-.09-.45-.28-.55-.19-.1-.38-.18-.59-.24v-.71h6.69v.71c-.19.05-.37.13-.55.22-.19.09-.28.28-.28.57,0,.21.05.42.14.63s.23.49.42.83l8.23,16.1c.13.29.31.5.53.63s.48.26.77.4v.71h-6.96v-.71c.1,0,.24-.04.4-.12s.24-.2.24-.36c0-.26-.11-.61-.32-1.03l-1.5-2.93h-9.65l-1.42,2.81c-.26.55-.4.95-.4,1.19,0,.29.25.44.75.44v.71h-5.62v-.71h0ZM135.08,98.51l-3.32-7.36-3.72,7.36h7.04Z" fill="#fff"/>
  </g>
  <g>
    <path d="M0,117.36v-.53h3.69v.53l-1.71.2h-.26l-1.71-.2h-.01ZM1.85,124.94v.72H0v-.53l1.71-.2h.14ZM1.22,116.83h1.27c-.04,1.36-.04,2.73-.04,4.09v.92c0,1.12,0,2.49.04,3.82h-1.27c.04-1.36.04-2.73.04-4.09v-.66c0-1.38,0-2.75-.04-4.09h0ZM6.69,123.18l-.13,2.48H1.85v-.66h4.25l-.73.66.53-2.48h.79Z" fill="#fff"/>
    <path d="M7.61,117.36v-.53h3.69v.53l-1.71.2h-.26l-1.71-.2h0ZM9.59,124.94l1.71.2v.53h-3.69v-.53l1.71-.2h.27ZM8.86,120.92c0-1.36,0-2.73-.04-4.09h1.27c-.04,1.33-.04,2.7-.04,4.09v.66c0,1.36,0,2.73.04,4.09h-1.27c.04-1.33.04-2.7.04-4.09v-.66Z" fill="#fff"/>
    <path d="M12.49,117.36v-.53h1.85v.73h-.13l-1.71-.2h-.01ZM14.47,124.94l1.71.2v.53h-3.69v-.53l1.71-.2h.27ZM13.74,120.92c0-1.36,0-2.73-.04-4.09h1.27c-.04,1.33-.04,2.7-.04,4.09v.5c0,1.52,0,2.89.04,4.25h-1.27c.04-1.33.04-2.7.04-4.09,0,0,0-.66,0-.66ZM17.99,116.83l.59.66h-4.25v-.66h4.71l.09,2.35h-.74l-.41-2.35h0ZM17.42,121.46h-3.08v-.61h3.08v.61ZM17,120.98l.2-1.4h.59v3.26h-.59l-.2-1.46v-.4Z" fill="#fff"/>
    <path d="M19.99,117.36v-.53h1.85v.73h-.13l-1.71-.2h-.01ZM21.84,124.94v.72h-1.85v-.53l1.71-.2h.14ZM21.25,120.92c0-1.36,0-2.73-.04-4.09h1.27c-.04,1.33-.04,2.7-.04,4.09v.5c0,1.52,0,2.89.04,4.25h-1.27c.04-1.33.04-2.7.04-4.09v-.66ZM25.49,116.83l.59.66h-4.25v-.66h4.71l.09,2.35h-.74l-.41-2.35h0ZM24.82,121.46h-2.98v-.61h2.98v.61ZM26.9,123.32l-.09,2.35h-4.97v-.66h4.51l-.59.66.41-2.35h.74-.01ZM24.4,120.98l.2-1.4h.59v3.12h-.59l-.2-1.46v-.26Z" fill="#fff"/>
    <path d="M31.04,117.36v-.53h1.85v.73h-.13l-1.71-.2h-.01ZM33.02,124.94l1.71.2v.53h-3.69v-.53l1.71-.2h.27ZM32.3,120.92c0-1.36,0-2.73-.04-4.09h1.27c-.04,1.33-.04,2.7-.04,4.09v.5c0,1.52,0,2.89.04,4.25h-1.27c.04-1.33.04-2.7.04-4.09v-.66ZM36.54,116.83l.59.66h-4.25v-.66h4.71l.09,2.35h-.74l-.41-2.35h.01ZM35.97,121.46h-3.08v-.61h3.08s0,.61,0,.61ZM35.55,120.98l.2-1.4h.59v3.26h-.59l-.2-1.46v-.4Z" fill="#fff"/>
    <path d="M38.55,117.36v-.53h3.69v.53l-1.71.2h-.26l-1.71-.2h-.01ZM40.53,124.94l1.71.2v.53h-3.69v-.53l1.71-.2h.27ZM39.8,120.92c0-1.36,0-2.73-.04-4.09h1.27c-.04,1.33-.04,2.7-.04,4.09v.66c0,1.36,0,2.73.04,4.09h-1.27c.04-1.33.04-2.7.04-4.09v-.66Z" fill="#fff"/>
    <path d="M43.43,117.36v-.53h1.85v.73h-.13l-1.71-.2h0ZM45.4,124.94l1.71.2v.53h-3.69v-.53l1.71-.2h.27ZM44.68,120.92c0-1.36,0-2.73-.04-4.09h1.27c-.04,1.37-.04,2.66-.04,4.22v.4c0,1.49,0,2.86.04,4.22h-1.27c.04-1.33.04-2.7.04-4.09v-.66ZM45.27,120.98h1.65c1.42,0,2.11-.76,2.11-1.83s-.59-1.71-1.96-1.71h-1.79v-.61h1.81c2.02,0,3.2.86,3.2,2.32,0,1.12-.88,2.14-2.61,2.28l.04-.11c.95.09,1.53.53,1.89,1.71l.65,2.19-.41-.25,1.36.16v.53c-.24.08-.55.13-.95.13-.82,0-1.17-.21-1.33-.82l-.54-2.15c-.26-1.07-.75-1.25-1.85-1.25h-1.25v-.59h-.02Z" fill="#fff"/>
    <path d="M56.52,123.59c0-.86-.51-1.24-1.66-1.69l-.5-.2c-1.34-.53-2.27-1.29-2.27-2.64,0-1.52,1.28-2.44,2.95-2.44.88,0,1.58.28,2.15.7l-.08,1.71h-.79l-.37-1.99.84.43v.66c-.65-.63-1.13-.86-1.83-.86-1.03,0-1.81.51-1.81,1.5,0,.83.54,1.32,1.5,1.69l.51.2c1.74.67,2.41,1.44,2.41,2.68,0,1.56-1.31,2.5-3.11,2.5-.99,0-1.95-.32-2.56-.7l.08-1.85h.79l.34,2.03-.86-.37v-.63c.82.59,1.27.86,2.16.86,1.25,0,2.08-.58,2.08-1.61l.03.02Z" fill="#fff"/>
    <path d="M58.82,117.49l.59-.66-.42,2.35h-.74l.11-2.35h7.2l.11,2.35h-.74l-.42-2.35.59.66h-6.28ZM62.08,124.94l1.85.2v.53h-3.96v-.53l1.85-.2h.26ZM61.36,120.92c0-1.36,0-2.73-.04-4.09h1.27c-.04,1.33-.04,2.7-.04,4.09v.66c0,1.36,0,2.73.04,4.09h-1.27c.04-1.33.04-2.7.04-4.09v-.66Z" fill="#fff"/>
    <path d="M69,128.63l-.18-.44c1.04-.51,1.83-1.25,2.06-2.53l.04.57-.63-.5c-.34-.28-.49-.62-.49-.94,0-.45.26-.82.79-.82.24,0,.49.08.82.38.09.33.15.63.15.95,0,1.58-1.28,2.85-2.54,3.32h-.02Z" fill="#fff"/>
    <path d="M76.31,116.83h1.74v.73h-.16l-1.58-.2s0-.53,0-.53ZM76.31,125.14l1.38-.2h.26l1.29.2v.53h-2.94v-.53h.01ZM77.5,116.83h.55l.12,3.93v4.9h-.67s0-8.83,0-8.83ZM77.51,116.83h1.17l3.23,7.91h-.45l3.06-7.91h.7l-3.44,8.83h-.65l-3.63-8.83h.01ZM83.53,125.14l1.58-.2h.26l1.71.2v.53h-3.56v-.53h0ZM84.67,121.58v-4.75h1.2c-.04,1.33-.04,2.7-.04,4.09v.66c0,1.36,0,2.73.04,4.09h-1.24c.04-1.33.04-2.7.04-4.09ZM85.24,116.83h1.85v.53l-1.71.2h-.13v-.73h-.01Z" fill="#fff"/>
    <path d="M88.27,117.36v-.53h3.69v.53l-1.71.2h-.26l-1.71-.2h-.01ZM90.25,124.94l1.71.2v.53h-3.69v-.53l1.71-.2h.27ZM89.53,120.92c0-1.36,0-2.73-.04-4.09h1.27c-.04,1.33-.04,2.7-.04,4.09v.66c0,1.36,0,2.73.04,4.09h-1.27c.04-1.33.04-2.7.04-4.09v-.66Z" fill="#fff"/>
    <path d="M97.69,123.59c0-.86-.51-1.24-1.66-1.69l-.5-.2c-1.34-.53-2.27-1.29-2.27-2.64,0-1.52,1.28-2.44,2.95-2.44.88,0,1.58.28,2.15.7l-.08,1.71h-.79l-.37-1.99.84.43v.66c-.65-.63-1.13-.86-1.83-.86-1.03,0-1.81.51-1.81,1.5,0,.83.54,1.32,1.5,1.69l.51.2c1.74.67,2.41,1.44,2.41,2.68,0,1.56-1.31,2.5-3.11,2.5-.99,0-1.95-.32-2.56-.7l.08-1.85h.79l.34,2.03-.86-.37v-.63c.82.59,1.27.86,2.16.86,1.25,0,2.08-.58,2.08-1.61l.03.02Z" fill="#fff"/>
    <path d="M104.28,123.59c0-.86-.51-1.24-1.66-1.69l-.5-.2c-1.34-.53-2.27-1.29-2.27-2.64,0-1.52,1.28-2.44,2.95-2.44.88,0,1.58.28,2.15.7l-.08,1.71h-.79l-.37-1.99.84.43v.66c-.65-.63-1.13-.86-1.83-.86-1.03,0-1.81.51-1.81,1.5,0,.83.54,1.32,1.5,1.69l.51.2c1.74.67,2.41,1.44,2.41,2.68,0,1.56-1.31,2.5-3.11,2.5-.99,0-1.95-.32-2.56-.7l.08-1.85h.79l.34,2.03-.86-.37v-.63c.82.59,1.27.86,2.16.86,1.25,0,2.08-.58,2.08-1.61l.03.02Z" fill="#fff"/>
    <path d="M106.34,117.36v-.53h3.69v.53l-1.71.2h-.26l-1.71-.2h-.01ZM108.32,124.94l1.71.2v.53h-3.69v-.53l1.71-.2h.27ZM107.59,120.92c0-1.36,0-2.73-.04-4.09h1.27c-.04,1.33-.04,2.7-.04,4.09v.66c0,1.36,0,2.73.04,4.09h-1.27c.04-1.33.04-2.7.04-4.09v-.66Z" fill="#fff"/>
    <path d="M118.98,121.25c0,2.89-1.98,4.61-4.02,4.61s-4.03-1.61-4.03-4.61,2-4.61,4.03-4.61,4.02,1.61,4.02,4.61ZM114.96,125.2c1.86,0,2.64-1.98,2.64-3.96s-.78-3.96-2.64-3.96-2.65,1.98-2.65,3.96.79,3.96,2.65,3.96Z" fill="#fff"/>
    <path d="M119.88,125.14l1.38-.2h.26l1.52.2v.53h-3.16s0-.53,0-.53ZM120.71,117.24l.82.32-1.58-.2v-.53h1.98l5.47,7.53v1.4h-.42l-6.26-8.52h-.01ZM121,116.83l.66.53v8.31h-.66v-8.83h0ZM125.35,116.83h3.16v.53l-1.32.2h-.26l-1.58-.2v-.53ZM126.74,116.83h.66v8.93l-.66-.66v-8.27Z" fill="#fff"/>
    <path d="M132.2,125.14l1.32-.2h.26l1.45.2v.53h-3.03v-.53ZM136.13,116.76h.79l3.03,8.9h-1.23l-2.65-7.9h.3l-2.69,7.9h-.62l3.06-8.9h0ZM134.59,122.17h3.56l.21.61h-3.98l.21-.61h0ZM137.18,125.14l1.66-.2h.26l1.63.2v.53h-3.56v-.53h0Z" fill="#fff"/>
    <path d="M141.34,117.36v-.53h3.69v.53l-1.71.2h-.26l-1.71-.2h0ZM143.18,124.94v.72h-1.85v-.53l1.71-.2h.14ZM142.55,116.83h1.27c-.04,1.36-.04,2.73-.04,4.09v.92c0,1.12,0,2.49.04,3.82h-1.27c.04-1.36.04-2.73.04-4.09v-.66c0-1.38,0-2.75-.04-4.09h0ZM148.02,123.18l-.13,2.48h-4.71v-.66h4.25l-.73.66.53-2.48h.79Z" fill="#fff"/>
    <path d="M149.21,117.56l-1.71-.2v-.53h3.56v.53l-1.58.2h-.27ZM153.73,116.83h.42l2.39,7.4h-.33l2.04-7.4h.66l-2.4,8.93h-.53l-2.53-7.53h.42l-2.37,7.53h-.51l-2.57-8.93h1.23l1.99,7.4h-.37l2.47-7.4h-.01ZM153.85,117.56l-1.69-.2v-.53h3.56v.53l-1.61.2h-.26ZM158.21,117.56l-1.38-.2v-.53h3.01v.53l-1.36.2h-.27Z" fill="#fff"/>
    <path d="M158.59,125.14l1.32-.2h.26l1.45.2v.53h-3.03v-.53ZM162.51,116.76h.79l3.03,8.9h-1.23l-2.65-7.9h.3l-2.69,7.9h-.62l3.06-8.9h0ZM160.97,122.17h3.56l.21.61h-3.98l.21-.61h0ZM163.57,125.14l1.66-.2h.26l1.63.2v.53h-3.56v-.53h0Z" fill="#fff"/>
    <path d="M166.27,117.36v-.53h3.69v.53l-1.71.2h-.26l-1.71-.2h0ZM169.9,122.7l-2.89-5.87h1.37l2.4,5.19h-.46l2.47-5.19h.67l-2.83,5.87h-.73,0ZM170.4,124.94l1.85.2v.53h-3.96v-.53l1.85-.2h.26ZM169.67,121.71h1.19c0,1.5,0,2.78.04,3.96h-1.27c.04-1.15.04-2.44.04-3.96h0ZM172.72,117.56l-1.46-.2v-.53h3.03v.53l-1.32.2h-.25,0Z" fill="#fff"/>
    <path d="M179.02,123.59c0-.86-.51-1.24-1.66-1.69l-.5-.2c-1.34-.53-2.27-1.29-2.27-2.64,0-1.52,1.28-2.44,2.95-2.44.88,0,1.58.28,2.15.7l-.08,1.71h-.79l-.37-1.99.84.43v.66c-.65-.63-1.13-.86-1.83-.86-1.03,0-1.81.51-1.81,1.5,0,.83.54,1.32,1.5,1.69l.51.2c1.74.67,2.41,1.44,2.41,2.68,0,1.56-1.31,2.5-3.11,2.5-.99,0-1.95-.32-2.56-.7l.08-1.85h.79l.34,2.03-.86-.37v-.63c.82.59,1.27.86,2.16.86,1.25,0,2.08-.58,2.08-1.61l.03.02Z" fill="#fff"/>
    <path d="M184.76,125c0-.45.37-.84.83-.84s.83.4.83.84-.37.83-.83.83-.83-.38-.83-.83ZM186.32,117.44c0,.49-.15,1.74-.32,3.59l-.17,1.83h-.47l-.17-1.83c-.17-1.85-.32-3.1-.32-3.59,0-.57.28-.8.73-.8s.73.24.73.8h0Z" fill="#fff"/>
  </g>
  <rect x="91.74" y="9.09" width="3.7" height="10.57" fill="#b1302e"/>
  <rect x="88.31" y="12.59" width="10.57" height="3.57" fill="#b1302e"/>
</svg>